<svg xmlns="http://www.w3.org/2000/svg" width="55" height="37.169" viewBox="0 0 55 37.169"><g transform="translate(-0.976 -1)"><g transform="translate(47.548 28.512)"><g transform="translate(0 0)"><path d="M-18.773-42.942c-2.572,0-4.1-1.316-4.214-3.212h2.459c0,.632.35,1.473,1.872,1.526,1.055,0,1.638-.632,1.638-1.107-.117-.737-1.055-.789-1.988-.95a9.615,9.615,0,0,1-2.459-.628,2.519,2.519,0,0,1-1.288-2.266c0-1.687,1.409-3,3.864-3,2.343,0,3.864,1.212,3.977,3.055h-2.339c0-.471-.117-1.264-1.522-1.264-.938,0-1.522.157-1.638.841,0,.95,1.988.9,3.51,1.264a2.717,2.717,0,0,1,2.343,2.532c0,2.319-1.872,3.212-4.214,3.212" transform="translate(22.987 52.582)"/></g></g><g transform="translate(6.946 17.908)"><path d="M0-20.888l8.075-4.689,4.331,7.43H1.522" transform="translate(0 25.578)"/></g><g transform="translate(23.925 28.494)"><path d="M0-41.776v-9.379" transform="translate(0 51.155)" stroke="#000" stroke-width="1.89"/></g><g transform="translate(0.976 28.528)"><g transform="translate(0 0)"><g transform="translate(0 0)"><path d="M-9.9-21.354A2.749,2.749,0,0,0-7.208-18.67a2.671,2.671,0,0,0,2.693-2.685,2.7,2.7,0,0,0-2.693-2.685A2.786,2.786,0,0,0-9.9-21.354m2.572,4.846a4.864,4.864,0,0,1-4.794-4.846,4.819,4.819,0,0,1,4.794-4.794,4.743,4.743,0,0,1,2.81.841v-.737h2.343v9.322H-4.516v-.58a4.807,4.807,0,0,1-2.81.793" transform="translate(12.119 26.148)"/></g></g></g><g transform="translate(25.789 1)"><path d="M-50.042-108.4-61.276-128l8.075-4.742L-39.158-108.4" transform="translate(61.276 132.74)"/></g><g transform="translate(11.744 25.421)"><g transform="translate(0 0)"><g transform="translate(0 0)"><path d="M-9.9-35.2A2.673,2.673,0,0,0-7.2-32.511,2.753,2.753,0,0,0-4.512-35.2,2.79,2.79,0,0,0-7.2-37.881,2.706,2.706,0,0,0-9.9-35.2m2.576,4.846a4.79,4.79,0,0,1-4.8-4.846,4.746,4.746,0,0,1,4.8-4.794,4.76,4.76,0,0,1,2.81.841V-43.1h2.339v12.534H-4.512v-.58a5.091,5.091,0,0,1-2.81.793" transform="translate(12.119 43.098)"/></g></g></g><g transform="translate(16.426 9.589)"><path d="M0-20.637,8.191-25.27,17.2-9.524H8.658v2.319H6.32V-9.524" transform="translate(0 25.27)"/></g><g transform="translate(26.021 25.409)"><g transform="translate(0 0)"><g transform="translate(27.267 0)"><path d="M-5.218-10.328a1.211,1.211,0,0,1-1.171-1.159,1.211,1.211,0,0,1,1.171-1.159,1.137,1.137,0,0,1,1.171,1.159,1.137,1.137,0,0,1-1.171,1.159m0-2.157a.94.94,0,0,0-.938,1,.944.944,0,0,0,.938,1,.943.943,0,0,0,.934-1,.939.939,0,0,0-.934-1" transform="translate(6.389 12.646)"/></g><g transform="translate(28.035 0.532)"><path d="M-2.869-5.63-3.1-6.157h-.233v.527h-.177V-6.894h.527a.418.418,0,0,1,.35.37.374.374,0,0,1-.233.366l.233.527m-.467-1.1h-.233v.419H-3.1c.233,0,.233-.052.233-.209,0-.109,0-.209-.233-.209" transform="translate(3.513 6.894)"/></g><g transform="translate(10.759 3.12)"><path d="M-9.9-21.354A2.673,2.673,0,0,0-7.2-18.67a2.746,2.746,0,0,0,2.689-2.685A2.783,2.783,0,0,0-7.2-24.039,2.706,2.706,0,0,0-9.9-21.354m2.572,4.846a4.789,4.789,0,0,1-4.794-4.846,4.745,4.745,0,0,1,4.794-4.794,4.743,4.743,0,0,1,2.81.841v-.737H-2.29v9.322H-4.516v-.58a5.072,5.072,0,0,1-2.81.793" transform="translate(12.119 26.148)"/></g><g transform="translate(0 0.012)"><path d="M-9.9-35.2A2.75,2.75,0,0,0-7.2-32.511,2.673,2.673,0,0,0-4.512-35.2,2.706,2.706,0,0,0-7.2-37.881,2.787,2.787,0,0,0-9.9-35.2m5.386-7.9h2.339v12.534H-4.512v-.58A4.455,4.455,0,0,1-7.2-30.35,4.889,4.889,0,0,1-12.119-35.2,4.845,4.845,0,0,1-7.2-39.99a4.181,4.181,0,0,1,2.693.841Z" transform="translate(12.119 43.098)"/></g></g></g></g></svg>