<svg xmlns="http://www.w3.org/2000/svg" width="71.647" height="23.842" viewBox="0 0 71.647 23.842"><path d="M12.411,21.95a1.651,1.651,0,0,1-1.673-2.256c.7-2.508,5.235-6.223,8.322-6.223,2.251,0,2.08,2.014.76,3.732l-.729.807c-2.616,2.567-5.042,3.939-6.68,3.939M23.444,5.041c-3.94,0-8.278,2.412-11,4.694l.215.312c4.229-2.965,10.1-4.892,11.715-2,.854,1.525-.6,4.606-2.638,7.041.488-1.075.166-3.14-2.682-3.14C14.319,11.947,5,18.218,5,24.635c0,2.571,1.783,4.248,4.721,4.248,7.862,0,18.525-12.888,18.525-19.361,0-2.287-1.315-4.481-4.8-4.481" transform="translate(-5 -5.041)"/><path d="M87.373,34.463a1.348,1.348,0,0,1-1.077-.451,1.324,1.324,0,0,1-.2-1.186,2.527,2.527,0,0,1,2.384-1.733h2.53l-.9,3.371Zm7.273-10.1a3.71,3.71,0,0,0-2.734-1.288h-4.6l-.781,2.911H90.87l.416.044a.979.979,0,0,1,.618.341,1.291,1.291,0,0,1,.076,1.1l-.205.766H89.042c-2.352,0-5.63,1.687-6.361,4.412a3.7,3.7,0,0,0,.661,3.4,4.47,4.47,0,0,0,3.452,1.333h5.745l1.508-5.633,1.11-4.141a3.452,3.452,0,0,0-.512-3.242" transform="translate(-58.807 -17.553)"/><path d="M209.065,23.07a5.558,5.558,0,0,0-3.34,1.065,4.617,4.617,0,0,0-1.785,2.712c-.677,2.525,1.307,3.743,2.9,4.607,1.143.619,2.132,1.154,1.918,1.945-.151.568-.4,1.065-1.806,1.065H202.66l-.779,2.911h4.753a5.433,5.433,0,0,0,3.4-.993,5.287,5.287,0,0,0,1.816-2.989,3.28,3.28,0,0,0-.657-3.152,8.55,8.55,0,0,0-2.348-1.632c-1.029-.554-2-1.076-1.83-1.71a1.282,1.282,0,0,1,1.315-.918H212.5l.781-2.911Z" transform="translate(-141.639 -17.553)"/><path d="M127.623,23.07a5.558,5.558,0,0,0-3.34,1.065,4.635,4.635,0,0,0-1.788,2.712c-.676,2.525,1.31,3.743,2.9,4.607,1.144.619,2.131,1.154,1.919,1.945-.153.568-.4,1.065-1.806,1.065h-4.293l-.781,2.911h4.752a5.434,5.434,0,0,0,3.4-.993,5.279,5.279,0,0,0,1.816-2.989,3.29,3.29,0,0,0-.655-3.152,8.541,8.541,0,0,0-2.351-1.632c-1.028-.554-2-1.076-1.827-1.71a1.279,1.279,0,0,1,1.314-.918h4.174l.782-2.911Z" transform="translate(-85.116 -17.553)"/><path d="M156.66,23.07l-3.728,14.3h3.149l3.725-14.3Z" transform="translate(-107.668 -17.553)"/><path d="M180.9,23.07a9.35,9.35,0,0,0-9.367,7.152c-1.091,4.079,1.08,7.152,5.051,7.152h2.661l.779-2.911h-2.66c-1.486,0-3.53-1.169-2.706-4.242a5.9,5.9,0,0,1,5.647-4.241h1.69l.781-2.911H180.9Z" transform="translate(-120.38 -17.553)"/></svg>