<svg xmlns="http://www.w3.org/2000/svg" width="51.569" height="34.635" viewBox="0 0 51.569 34.635"><g transform="translate(-20.164 -25.358)"><g transform="translate(31.286 25.358)"><path d="M181.287,114.713l-.022-5.23,5.008-1.857-5.042-1.652-.106-5.153-3.059,4.156-5.005-1.543,2.9,4.366-2.832,4.373,4.938-1.637Z" transform="translate(-173.06 -95.332)"/><path d="M294.758,50.238h8.971l11.242-12.432-11.3-12.447H294.79l10.566,12.43Z" transform="translate(-285.906 -25.358)"/></g><g transform="translate(20.164 53.603)"><path d="M20.164,418.542a3.266,3.266,0,0,1,3.232-3.205,4.951,4.951,0,0,1,2.7,1.435l-1.546.9A1.222,1.222,0,0,0,23.34,417a1.535,1.535,0,0,0-1.546,1.519,1.511,1.511,0,0,0,1.489,1.519,2.4,2.4,0,0,0,1.348-.7l1.321.956a3.644,3.644,0,0,1-2.642,1.21,2.909,2.909,0,0,1-3.146-2.953Z" transform="translate(-20.164 -415.216)"/><path d="M112.59,416.457a3.094,3.094,0,1,0,3.151,3.1A3.122,3.122,0,0,0,112.59,416.457Zm0,1.548a1.546,1.546,0,1,1-1.57,1.548A1.563,1.563,0,0,1,112.59,418.005Z" transform="translate(-102.95 -416.254)"/><path d="M212.268,417.645v5.788h1.516V420.3l2.5,3.128h1.494v-5.788h-1.521v3.383l-2.472-3.383Z" transform="translate(-198.295 -417.356)"/><path d="M304.976,417.645l2.047,5.788h2.254l2.047-5.788h-1.657l-1.516,4.6-1.516-4.6Z" transform="translate(-284.26 -417.356)"/><path d="M407.189,417.645v5.788h4.657V422.1h-3.141v-.968h2.822v-1.183h-2.822v-.923h3.141v-1.378Z" transform="translate(-379.038 -417.356)"/><path d="M665.15,417.645v5.788H669.8V422.1h-3.141v-.968h2.822v-1.183h-2.822v-.923H669.8v-1.378Z" transform="translate(-618.235 -417.356)"/><path d="M494.738,419.173v5.706h1.346v-2.249h.77l1.183,2.249h1.733l-1.17-2.44a1.727,1.727,0,0,0-.477-3.267Zm1.319,1.378h1.553c.541,0,.5.837,0,.837h-1.553Z" transform="translate(-460.218 -418.773)"/><path d="M575.055,418.98c.059.358,1.469,1.035,2.862,1.035,1.279,0,2.306-.615,2.306-1.832,0-1.5-1.748-1.844-1.748-1.844s-1.454-.02-1.491-.7c-.017-.319.425-.5.815-.5a2.555,2.555,0,0,1,1.351.637l1.015-1.094a4.827,4.827,0,0,0-2.365-1.015c-1.035,0-2.5.677-2.5,2.086,0,1.2,1.7,1.751,1.7,1.751s1.8.19,1.8.753c0,.383-.652.5-1.035.5a2.753,2.753,0,0,1-1.709-.815Z" transform="translate(-534.694 -413.673)"/></g></g></svg>