<svg xmlns="http://www.w3.org/2000/svg" width="69" height="12.913" viewBox="0 0 69 12.913"><g transform="translate(-26.1 -33.6)"><path d="M32.863,37.03a2.9,2.9,0,0,1,2.3,1.176l.049.049c.025.025.049.049.049.074h0a1.744,1.744,0,0,0,1.4.662A1.8,1.8,0,0,0,38.449,37.2a1.75,1.75,0,0,0-.466-1.2,6.009,6.009,0,0,0-5.146-2.4,6.451,6.451,0,1,0,.025,12.888,6.265,6.265,0,0,0,5.146-2.23h0a1.753,1.753,0,0,0-1.323-2.916,1.742,1.742,0,0,0-1.323.613,3.224,3.224,0,0,1-2.475,1.152c-1.764,0-2.769-1.274-2.769-3.087a2.656,2.656,0,0,1,2.744-2.989"/><path d="M94.017,34.937a3.012,3.012,0,0,0-1.936-.319,5.2,5.2,0,0,0-3.087,1.544v0h0a2,2,0,0,0-3.994.1v8.748a1.988,1.988,0,0,0,2.009,1.936,2.009,2.009,0,0,0,2.009-1.96V42.606c0-3.234,1.887-4.067,2.94-4.092a6.1,6.1,0,0,0,1.544.172,2,2,0,0,0,1.617-2.328,2.115,2.115,0,0,0-1.1-1.421" transform="translate(-44.468 -0.528)"/><path d="M136.612,43.205c1.74,0,2.769-1.274,2.793-3.112,0-1.862-1.054-3.112-2.793-3.112s-2.818,1.25-2.818,3.112a2.812,2.812,0,0,0,2.818,3.112m0-9.605a6.464,6.464,0,0,1,6.787,6.469c0,3.749-2.965,6.42-6.787,6.42s-6.812-2.671-6.812-6.42a6.485,6.485,0,0,1,6.812-6.469" transform="translate(-78.291)"/><path d="M200.463,37.03a2.9,2.9,0,0,1,2.3,1.176l.049.049c.024.025.049.049.049.074h0a1.744,1.744,0,0,0,1.4.662,1.8,1.8,0,0,0,1.789-1.789,1.75,1.75,0,0,0-.466-1.2,5.993,5.993,0,0,0-5.121-2.4c-3.847,0-6.763,2.671-6.763,6.42a6.4,6.4,0,0,0,6.763,6.469,6.265,6.265,0,0,0,5.146-2.23h0a1.753,1.753,0,0,0-1.323-2.916,1.742,1.742,0,0,0-1.323.613,3.238,3.238,0,0,1-2.5,1.152c-1.764,0-2.769-1.274-2.769-3.087a2.712,2.712,0,0,1,2.769-2.989" transform="translate(-126.533)"/><path d="M257.1,38.5c1.789.417,4.043,1.25,4.043,3.9,0,2.254-1.176,4.116-5.072,4.116a7.159,7.159,0,0,1-5-1.691L251,44.749c-.049-.025-.074-.074-.1-.1s-.049-.074-.074-.1a.513.513,0,0,1-.1-.147.086.086,0,0,1-.024-.049,1.523,1.523,0,0,1,.245-1.813,1.57,1.57,0,0,1,2.181-.074h0l-.025-.025a4.4,4.4,0,0,0,2.72.98c1.274,0,1.691-.245,1.691-.76,0-.686-.784-.686-2.793-1.2-1.691-.441-3.577-1.372-3.577-3.945,0-2.793,2.132-3.92,4.778-3.92a5.975,5.975,0,0,1,4.484,1.691,1.485,1.485,0,0,1,.515,1.127,1.537,1.537,0,0,1-1.544,1.544,1.461,1.461,0,0,1-1.054-.417h0a3.839,3.839,0,0,0-2.377-.931q-1.323,0-1.323.735c0,.686.784.784,2.475,1.152" transform="translate(-169.426)"/><path d="M295.3,35.119V34.8H294v.319h.466v1.274h.392V35.119Z" transform="translate(-202.257 -0.906)"/><path d="M301.67,36.393V35.266h0l-.417,1.127h-.27l-.417-1.127h0v1.127H300.2V34.8h.539l.392,1.054.392-1.054h.515v1.593Z" transform="translate(-206.938 -0.906)"/></g></svg>