<svg xmlns="http://www.w3.org/2000/svg" width="57.5" height="18.937" viewBox="0 0 57.5 18.937"><g transform="translate(-620.987 -475.686)"><g transform="translate(639.436 475.686)"><path d="M-.323-95.456l-.056-13.884a2.487,2.487,0,0,1,2.48-2.525h.272A2.525,2.525,0,0,1,4.9-109.339l.056,13.884A2.526,2.526,0,0,1,2.428-92.93H2.142A2.474,2.474,0,0,1-.323-95.456" transform="translate(0.379 111.864)"/></g><g transform="translate(646.782 475.704)"><path d="M-143.1-9.438-137.489-.3c1.213,1.973,1.495,2.487,1.495,3.942a4.17,4.17,0,0,1-3.925,4.049H-147.5A2.364,2.364,0,0,1-150,5.352V5.194a2.5,2.5,0,0,1,2.5-2.5h4.645c.291,0,.476-.039.552-.223a.494.494,0,0,0-.076-.54l-3.309-5.31c-.056-.088-.117-.21-.221-.21s-.179.122-.223.217l-5.06,8.678c-.784,1.377-1.712,2.383-3.094,2.383h-9.722a3.953,3.953,0,0,1-3.694-3.7V-8.56a2.5,2.5,0,0,1,2.495-2.5h.319a2.5,2.5,0,0,1,2.5,2.5l0,10.256a.659.659,0,0,0,.683.678h4.834a1.874,1.874,0,0,0,1.8-1.042l6.5-10.77a3.15,3.15,0,0,1,2.785-1.572,3.019,3.019,0,0,1,2.69,1.572" transform="translate(167.7 11.06)"/></g><g transform="translate(620.987 482.799)"><path d="M-34.863-29.992a.677.677,0,0,0-.678.679v3.494a2.5,2.5,0,0,1-2.5,2.5h-.321a2.5,2.5,0,0,1-2.5-2.5l0-6.354a2.934,2.934,0,0,1,2.974-2.975h10.152a2.5,2.5,0,0,1,2.5,2.5v.157a2.5,2.5,0,0,1-2.5,2.5Z" transform="translate(40.856 35.148)"/></g><g transform="translate(620.988 476.046)"><path d="M-14.7,0H-2.869A2.491,2.491,0,0,1-.342,2.48v.157A2.528,2.528,0,0,1-2.869,5.166H-14.7a2.527,2.527,0,0,1-2.526-2.529V2.464A2.474,2.474,0,0,1-14.7,0" transform="translate(17.221)"/></g></g></svg>