<svg xmlns="http://www.w3.org/2000/svg" width="59.915" height="21.353" viewBox="0 0 59.915 21.353"><path d="M144.219,383.486a7.321,7.321,0,0,1-4.388-1.467,8.763,8.763,0,0,1-.912-.912,5.7,5.7,0,0,1-.988-1.778c-.646-1.936-.314-4.476.951-7.263a32.362,32.362,0,0,1,5.67-8.032c.429-.482,1.708-1.893,1.717-1.893s-.067.121-.154.268a17.183,17.183,0,0,0-1.76,4.06,7.284,7.284,0,0,0,.2,5.243,5.122,5.122,0,0,0,2.241,2.234c1.629.8,4.014.864,6.927.193.2-.046,10.137-2.684,22.082-5.862s21.719-5.776,21.72-5.774-27.75,11.879-42.158,18.04c-2.282.975-2.892,1.222-3.964,1.6A20.1,20.1,0,0,1,144.219,383.486Z" transform="translate(-137.61 -362.141)"/></svg>