<?xml version="1.0" encoding="utf-8"?>
<!-- Generator: Adobe Illustrator 16.0.0, SVG Export Plug-In . SVG Version: 6.00 Build 0)  -->
<!DOCTYPE svg PUBLIC "-//W3C//DTD SVG 1.1//EN" "http://www.w3.org/Graphics/SVG/1.1/DTD/svg11.dtd">
<svg version="1.1" id="Capa_1" xmlns="http://www.w3.org/2000/svg" xmlns:xlink="http://www.w3.org/1999/xlink" x="0px" y="0px"
	 width="68.6px" height="34.2px" viewBox="0 0 68.6 34.2" style="enable-background:new 0 0 68.6 34.2;" xml:space="preserve">
<style type="text/css">
<![CDATA[
	.st0{display:inline;fill:#E6E6E6;}
	.st1{fill:#E23221;}
	.st2{fill:#E6E6E6;}
	.st3{fill:#194184;}
	.st4{fill:#E85B0D;}
	.st5{clip-path:url(#SVGID_16_);fill:#D2D2D2;}
	.st6{clip-path:url(#SVGID_30_);fill:#F29100;}
	.st7{fill:#B3B3B3;}
	.st8{clip-path:url(#SVGID_6_);fill:#00A4F3;}
	.st9{clip-path:url(#SVGID_34_);fill:#E9E9E9;}
	.st10{fill:none;stroke:#FFFFFF;stroke-width:2.3296;stroke-linecap:round;stroke-linejoin:round;stroke-miterlimit:10;}
	.st11{fill:#EE7D00;}
	.st12{fill:none;stroke:#333333;stroke-width:1.433;stroke-miterlimit:10;}
	.st13{fill:none;stroke:#FFFFFF;stroke-miterlimit:10;}
	.st14{fill:none;stroke:#4D4D4D;stroke-width:2;stroke-miterlimit:10;}
	.st15{clip-path:url(#SVGID_8_);fill:#00A4F3;}
	.st16{fill:#F0C825;}
	.st17{clip-path:url(#SVGID_34_);fill:url(#SVGID_100_);}
	.st18{clip-path:url(#SVGID_34_);fill:url(#SVGID_101_);}
	.st19{clip-path:url(#SVGID_34_);fill:url(#SVGID_102_);}
	.st20{clip-path:url(#SVGID_34_);fill:url(#SVGID_103_);}
	.st21{clip-path:url(#SVGID_34_);fill:url(#SVGID_104_);}
	.st22{clip-path:url(#SVGID_34_);fill:url(#SVGID_105_);}
	.st23{clip-path:url(#SVGID_34_);fill:url(#SVGID_106_);}
	.st24{clip-path:url(#SVGID_34_);fill:url(#SVGID_107_);}
	.st25{clip-path:url(#SVGID_34_);fill:url(#SVGID_108_);}
	.st26{clip-path:url(#SVGID_34_);fill:url(#SVGID_109_);}
	.st27{clip-path:url(#SVGID_34_);fill:url(#SVGID_110_);}
	.st28{clip-path:url(#SVGID_34_);fill:url(#SVGID_111_);}
	.st29{clip-path:url(#SVGID_34_);fill:url(#SVGID_112_);}
	.st30{clip-path:url(#SVGID_34_);fill:url(#SVGID_113_);}
	.st31{clip-path:url(#SVGID_34_);fill:url(#SVGID_114_);}
	.st32{clip-path:url(#SVGID_34_);fill:url(#SVGID_115_);}
	.st33{clip-path:url(#SVGID_34_);fill:url(#SVGID_116_);}
	.st34{clip-path:url(#SVGID_34_);fill:url(#SVGID_117_);}
	.st35{clip-path:url(#SVGID_34_);fill:url(#SVGID_118_);}
	.st36{clip-path:url(#SVGID_34_);fill:url(#SVGID_119_);}
	.st37{clip-path:url(#SVGID_34_);fill:url(#SVGID_120_);}
	.st38{clip-path:url(#SVGID_34_);fill:url(#SVGID_121_);}
	.st39{clip-path:url(#SVGID_34_);fill:url(#SVGID_122_);}
	.st40{clip-path:url(#SVGID_34_);fill:url(#SVGID_123_);}
	.st41{clip-path:url(#SVGID_34_);fill:url(#SVGID_124_);}
	.st42{clip-path:url(#SVGID_34_);fill:url(#SVGID_125_);}
	.st43{clip-path:url(#SVGID_34_);fill:url(#SVGID_126_);}
	.st44{clip-path:url(#SVGID_34_);fill:url(#SVGID_127_);}
	.st45{clip-path:url(#SVGID_34_);fill:url(#SVGID_128_);}
	.st46{clip-path:url(#SVGID_34_);fill:url(#SVGID_129_);}
	.st47{clip-path:url(#SVGID_34_);fill:url(#SVGID_130_);}
	.st48{clip-path:url(#SVGID_34_);fill:url(#SVGID_131_);}
	.st49{clip-path:url(#SVGID_34_);fill:url(#SVGID_132_);}
	.st50{clip-path:url(#SVGID_34_);fill:url(#SVGID_133_);}
	.st51{clip-path:url(#SVGID_34_);fill:url(#SVGID_134_);}
	.st52{clip-path:url(#SVGID_34_);fill:url(#SVGID_135_);}
	.st53{clip-path:url(#SVGID_34_);fill:url(#SVGID_136_);}
	.st54{clip-path:url(#SVGID_34_);fill:url(#SVGID_137_);}
	.st55{clip-path:url(#SVGID_34_);fill:url(#SVGID_138_);}
	.st56{clip-path:url(#SVGID_34_);fill:url(#SVGID_139_);}
	.st57{clip-path:url(#SVGID_34_);fill:url(#SVGID_140_);}
	.st58{clip-path:url(#SVGID_34_);fill:url(#SVGID_141_);}
	.st59{clip-path:url(#SVGID_34_);fill:url(#SVGID_142_);}
	.st60{clip-path:url(#SVGID_34_);fill:url(#SVGID_143_);}
	.st61{clip-path:url(#SVGID_34_);fill:url(#SVGID_144_);}
	.st62{clip-path:url(#SVGID_34_);fill:url(#SVGID_145_);}
	.st63{clip-path:url(#SVGID_34_);fill:url(#SVGID_146_);}
	.st64{clip-path:url(#SVGID_34_);fill:url(#SVGID_147_);}
	.st65{clip-path:url(#SVGID_34_);fill:url(#SVGID_148_);}
	.st66{clip-path:url(#SVGID_34_);fill:url(#SVGID_149_);}
	.st67{clip-path:url(#SVGID_34_);fill:url(#SVGID_150_);}
	.st68{clip-path:url(#SVGID_34_);fill:url(#SVGID_151_);}
	.st69{clip-path:url(#SVGID_34_);fill:url(#SVGID_152_);}
	.st70{clip-path:url(#SVGID_34_);fill:url(#SVGID_153_);}
	.st71{clip-path:url(#SVGID_34_);fill:url(#SVGID_154_);}
	.st72{clip-path:url(#SVGID_34_);fill:url(#SVGID_155_);}
	.st73{clip-path:url(#SVGID_34_);fill:url(#SVGID_156_);}
	.st74{clip-path:url(#SVGID_34_);fill:url(#SVGID_157_);}
	.st75{clip-path:url(#SVGID_34_);fill:url(#SVGID_158_);}
	.st76{clip-path:url(#SVGID_34_);fill:url(#SVGID_159_);}
	.st77{clip-path:url(#SVGID_34_);fill:url(#SVGID_160_);}
	.st78{clip-path:url(#SVGID_34_);fill:url(#SVGID_161_);}
	.st79{clip-path:url(#SVGID_34_);fill:url(#SVGID_162_);}
	.st80{clip-path:url(#SVGID_34_);fill:url(#SVGID_163_);}
	.st81{clip-path:url(#SVGID_34_);fill:url(#SVGID_164_);}
	.st82{clip-path:url(#SVGID_34_);fill:url(#SVGID_165_);}
	.st83{clip-path:url(#SVGID_34_);fill:url(#SVGID_166_);}
	.st84{clip-path:url(#SVGID_34_);fill:url(#SVGID_167_);}
	.st85{clip-path:url(#SVGID_34_);fill:url(#SVGID_168_);}
	.st86{clip-path:url(#SVGID_34_);fill:url(#SVGID_169_);}
	.st87{clip-path:url(#SVGID_34_);fill:url(#SVGID_170_);}
	.st88{clip-path:url(#SVGID_34_);fill:url(#SVGID_171_);}
	.st89{clip-path:url(#SVGID_34_);fill:url(#SVGID_172_);}
	.st90{clip-path:url(#SVGID_34_);fill:url(#SVGID_173_);}
	.st91{clip-path:url(#SVGID_34_);fill:url(#SVGID_174_);}
	.st92{clip-path:url(#SVGID_34_);fill:url(#SVGID_175_);}
	.st93{clip-path:url(#SVGID_34_);fill:url(#SVGID_176_);}
	.st94{clip-path:url(#SVGID_34_);fill:url(#SVGID_177_);}
	.st95{clip-path:url(#SVGID_34_);fill:url(#SVGID_178_);}
	.st96{clip-path:url(#SVGID_34_);fill:url(#SVGID_179_);}
	.st97{clip-path:url(#SVGID_34_);fill:url(#SVGID_180_);}
	.st98{clip-path:url(#SVGID_34_);fill:url(#SVGID_181_);}
	.st99{clip-path:url(#SVGID_34_);fill:url(#SVGID_182_);}
	.st100{clip-path:url(#SVGID_34_);fill:url(#SVGID_183_);}
	.st101{clip-path:url(#SVGID_34_);fill:url(#SVGID_184_);}
	.st102{clip-path:url(#SVGID_34_);fill:url(#SVGID_185_);}
	.st103{clip-path:url(#SVGID_34_);fill:url(#SVGID_186_);}
	.st104{clip-path:url(#SVGID_34_);fill:url(#SVGID_187_);}
	.st105{clip-path:url(#SVGID_34_);fill:url(#SVGID_188_);}
	.st106{clip-path:url(#SVGID_34_);fill:url(#SVGID_189_);}
	.st107{clip-path:url(#SVGID_34_);fill:url(#SVGID_190_);}
	.st108{clip-path:url(#SVGID_34_);fill:url(#SVGID_191_);}
	.st109{clip-path:url(#SVGID_34_);fill:url(#SVGID_192_);}
	.st110{clip-path:url(#SVGID_34_);fill:url(#SVGID_193_);}
	.st111{clip-path:url(#SVGID_34_);fill:url(#SVGID_194_);}
	.st112{clip-path:url(#SVGID_34_);fill:url(#SVGID_195_);}
	.st113{clip-path:url(#SVGID_34_);fill:url(#SVGID_196_);}
	.st114{clip-path:url(#SVGID_34_);fill:url(#SVGID_197_);}
	.st115{clip-path:url(#SVGID_34_);fill:url(#SVGID_198_);}
	.st116{clip-path:url(#SVGID_34_);fill:url(#SVGID_199_);}
	.st117{clip-path:url(#SVGID_34_);fill:url(#SVGID_200_);}
	.st118{clip-path:url(#SVGID_34_);fill:url(#SVGID_201_);}
	.st119{clip-path:url(#SVGID_34_);fill:url(#SVGID_202_);}
	.st120{clip-path:url(#SVGID_34_);fill:url(#SVGID_203_);}
	.st121{clip-path:url(#SVGID_34_);fill:url(#SVGID_204_);}
	.st122{clip-path:url(#SVGID_34_);fill:url(#SVGID_205_);}
	.st123{clip-path:url(#SVGID_34_);fill:url(#SVGID_206_);}
	.st124{clip-path:url(#SVGID_34_);fill:url(#SVGID_207_);}
	.st125{clip-path:url(#SVGID_34_);fill:url(#SVGID_208_);}
	.st126{clip-path:url(#SVGID_34_);fill:url(#SVGID_209_);}
	.st127{clip-path:url(#SVGID_34_);fill:url(#SVGID_210_);}
	.st128{clip-path:url(#SVGID_34_);fill:url(#SVGID_211_);}
	.st129{clip-path:url(#SVGID_34_);fill:url(#SVGID_212_);}
	.st130{clip-path:url(#SVGID_34_);fill:url(#SVGID_213_);}
	.st131{clip-path:url(#SVGID_34_);fill:url(#SVGID_214_);}
	.st132{clip-path:url(#SVGID_34_);fill:url(#SVGID_215_);}
	.st133{clip-path:url(#SVGID_34_);fill:url(#SVGID_216_);}
	.st134{clip-path:url(#SVGID_34_);fill:url(#SVGID_217_);}
	.st135{clip-path:url(#SVGID_34_);fill:url(#SVGID_218_);}
	.st136{clip-path:url(#SVGID_34_);fill:url(#SVGID_219_);}
	.st137{clip-path:url(#SVGID_34_);fill:url(#SVGID_220_);}
	.st138{clip-path:url(#SVGID_34_);fill:url(#SVGID_221_);}
	.st139{clip-path:url(#SVGID_34_);fill:url(#SVGID_222_);}
	.st140{clip-path:url(#SVGID_34_);fill:url(#SVGID_223_);}
	.st141{clip-path:url(#SVGID_34_);fill:url(#SVGID_224_);}
	.st142{clip-path:url(#SVGID_34_);fill:url(#SVGID_225_);}
	.st143{clip-path:url(#SVGID_34_);fill:url(#SVGID_226_);}
	.st144{clip-path:url(#SVGID_34_);fill:url(#SVGID_227_);}
	.st145{clip-path:url(#SVGID_34_);fill:url(#SVGID_228_);}
	.st146{clip-path:url(#SVGID_34_);fill:url(#SVGID_229_);}
	.st147{clip-path:url(#SVGID_34_);fill:url(#SVGID_230_);}
	.st148{clip-path:url(#SVGID_34_);fill:url(#SVGID_231_);}
	.st149{clip-path:url(#SVGID_34_);fill:url(#SVGID_232_);}
	.st150{clip-path:url(#SVGID_34_);fill:url(#SVGID_233_);}
	.st151{clip-path:url(#SVGID_34_);fill:url(#SVGID_234_);}
	.st152{clip-path:url(#SVGID_34_);fill:url(#SVGID_235_);}
	.st153{clip-path:url(#SVGID_34_);fill:url(#SVGID_236_);}
	.st154{clip-path:url(#SVGID_34_);fill:url(#SVGID_237_);}
	.st155{clip-path:url(#SVGID_34_);fill:url(#SVGID_238_);}
	.st156{clip-path:url(#SVGID_34_);fill:url(#SVGID_239_);}
	.st157{clip-path:url(#SVGID_34_);fill:url(#SVGID_240_);}
	.st158{clip-path:url(#SVGID_34_);fill:url(#SVGID_241_);}
	.st159{clip-path:url(#SVGID_34_);fill:url(#SVGID_242_);}
	.st160{clip-path:url(#SVGID_34_);fill:url(#SVGID_243_);}
	.st161{clip-path:url(#SVGID_34_);fill:url(#SVGID_244_);}
	.st162{clip-path:url(#SVGID_34_);fill:url(#SVGID_245_);}
	.st163{clip-path:url(#SVGID_34_);fill:url(#SVGID_246_);}
	.st164{clip-path:url(#SVGID_34_);fill:url(#SVGID_247_);}
	.st165{clip-path:url(#SVGID_34_);fill:url(#SVGID_248_);}
	.st166{clip-path:url(#SVGID_34_);fill:url(#SVGID_249_);}
	.st167{clip-path:url(#SVGID_34_);fill:url(#SVGID_250_);}
	.st168{clip-path:url(#SVGID_34_);fill:url(#SVGID_251_);}
	.st169{clip-path:url(#SVGID_34_);fill:url(#SVGID_252_);}
	.st170{clip-path:url(#SVGID_34_);fill:url(#SVGID_253_);}
	.st171{clip-path:url(#SVGID_34_);fill:url(#SVGID_254_);}
	.st172{clip-path:url(#SVGID_34_);fill:url(#SVGID_255_);}
	.st173{clip-path:url(#SVGID_34_);fill:url(#SVGID_256_);}
	.st174{clip-path:url(#SVGID_34_);fill:url(#SVGID_257_);}
	.st175{clip-path:url(#SVGID_34_);fill:url(#SVGID_258_);}
	.st176{clip-path:url(#SVGID_34_);fill:url(#SVGID_259_);}
	.st177{clip-path:url(#SVGID_34_);fill:url(#SVGID_260_);}
	.st178{clip-path:url(#SVGID_34_);fill:url(#SVGID_261_);}
	.st179{clip-path:url(#SVGID_34_);fill:url(#SVGID_262_);}
	.st180{clip-path:url(#SVGID_34_);fill:url(#SVGID_263_);}
	.st181{clip-path:url(#SVGID_34_);fill:url(#SVGID_264_);}
	.st182{clip-path:url(#SVGID_34_);fill:url(#SVGID_265_);}
	.st183{clip-path:url(#SVGID_34_);fill:url(#SVGID_266_);}
	.st184{clip-path:url(#SVGID_34_);fill:url(#SVGID_267_);}
	.st185{clip-path:url(#SVGID_34_);fill:url(#SVGID_268_);}
	.st186{clip-path:url(#SVGID_34_);fill:url(#SVGID_269_);}
	.st187{clip-path:url(#SVGID_34_);fill:url(#SVGID_270_);}
	.st188{clip-path:url(#SVGID_34_);fill:url(#SVGID_271_);}
	.st189{clip-path:url(#SVGID_34_);fill:url(#SVGID_272_);}
	.st190{clip-path:url(#SVGID_34_);fill:url(#SVGID_273_);}
	.st191{clip-path:url(#SVGID_34_);fill:url(#SVGID_274_);}
	.st192{clip-path:url(#SVGID_34_);fill:url(#SVGID_275_);}
	.st193{clip-path:url(#SVGID_34_);fill:url(#SVGID_276_);}
	.st194{clip-path:url(#SVGID_34_);fill:url(#SVGID_277_);}
	.st195{clip-path:url(#SVGID_34_);fill:url(#SVGID_278_);}
	.st196{clip-path:url(#SVGID_34_);fill:url(#SVGID_279_);}
	.st197{clip-path:url(#SVGID_34_);fill:url(#SVGID_280_);}
	.st198{clip-path:url(#SVGID_34_);fill:url(#SVGID_281_);}
	.st199{clip-path:url(#SVGID_34_);fill:url(#SVGID_282_);}
	.st200{clip-path:url(#SVGID_34_);fill:url(#SVGID_283_);}
	.st201{clip-path:url(#SVGID_34_);fill:url(#SVGID_284_);}
	.st202{clip-path:url(#SVGID_34_);fill:url(#SVGID_285_);}
	.st203{clip-path:url(#SVGID_34_);fill:url(#SVGID_286_);}
	.st204{clip-path:url(#SVGID_34_);fill:url(#SVGID_287_);}
	.st205{clip-path:url(#SVGID_34_);fill:url(#SVGID_288_);}
	.st206{clip-path:url(#SVGID_34_);fill:url(#SVGID_289_);}
	.st207{clip-path:url(#SVGID_34_);fill:url(#SVGID_290_);}
	.st208{clip-path:url(#SVGID_34_);fill:url(#SVGID_291_);}
	.st209{clip-path:url(#SVGID_34_);fill:url(#SVGID_292_);}
	.st210{clip-path:url(#SVGID_34_);fill:url(#SVGID_293_);}
	.st211{clip-path:url(#SVGID_34_);fill:url(#SVGID_294_);}
	.st212{clip-path:url(#SVGID_34_);fill:url(#SVGID_295_);}
	.st213{clip-path:url(#SVGID_34_);fill:url(#SVGID_296_);}
	.st214{clip-path:url(#SVGID_34_);fill:url(#SVGID_297_);}
	.st215{clip-path:url(#SVGID_34_);fill:url(#SVGID_298_);}
	.st216{clip-path:url(#SVGID_34_);fill:url(#SVGID_299_);}
	.st217{fill:#F49C04;}
	.st218{clip-path:url(#SVGID_34_);fill:url(#SVGID_300_);}
	.st219{clip-path:url(#SVGID_34_);fill:url(#SVGID_301_);}
	.st220{clip-path:url(#SVGID_34_);fill:url(#SVGID_302_);}
	.st221{clip-path:url(#SVGID_34_);fill:url(#SVGID_303_);}
	.st222{clip-path:url(#SVGID_34_);fill:url(#SVGID_304_);}
	.st223{clip-path:url(#SVGID_34_);fill:url(#SVGID_305_);}
	.st224{clip-path:url(#SVGID_34_);fill:url(#SVGID_306_);}
	.st225{clip-path:url(#SVGID_34_);fill:url(#SVGID_307_);}
	.st226{clip-path:url(#SVGID_34_);fill:url(#SVGID_308_);}
	.st227{clip-path:url(#SVGID_34_);fill:url(#SVGID_309_);}
	.st228{clip-path:url(#SVGID_34_);fill:url(#SVGID_310_);}
	.st229{clip-path:url(#SVGID_34_);fill:url(#SVGID_311_);}
	.st230{clip-path:url(#SVGID_34_);fill:url(#SVGID_312_);}
	.st231{clip-path:url(#SVGID_34_);fill:url(#SVGID_313_);}
	.st232{clip-path:url(#SVGID_34_);fill:url(#SVGID_314_);}
	.st233{clip-path:url(#SVGID_34_);fill:url(#SVGID_315_);}
	.st234{clip-path:url(#SVGID_34_);fill:url(#SVGID_316_);}
	.st235{clip-path:url(#SVGID_34_);fill:url(#SVGID_317_);}
	.st236{clip-path:url(#SVGID_34_);fill:url(#SVGID_318_);}
	.st237{clip-path:url(#SVGID_34_);fill:url(#SVGID_319_);}
	.st238{clip-path:url(#SVGID_34_);fill:url(#SVGID_320_);}
	.st239{clip-path:url(#SVGID_34_);fill:url(#SVGID_321_);}
	.st240{clip-path:url(#SVGID_34_);fill:url(#SVGID_322_);}
	.st241{clip-path:url(#SVGID_34_);fill:url(#SVGID_323_);}
	.st242{clip-path:url(#SVGID_34_);fill:url(#SVGID_324_);}
	.st243{clip-path:url(#SVGID_34_);fill:url(#SVGID_325_);}
	.st244{clip-path:url(#SVGID_34_);fill:url(#SVGID_326_);}
	.st245{clip-path:url(#SVGID_34_);fill:url(#SVGID_327_);}
	.st246{clip-path:url(#SVGID_34_);fill:url(#SVGID_328_);}
	.st247{clip-path:url(#SVGID_34_);fill:url(#SVGID_329_);}
	.st248{clip-path:url(#SVGID_34_);fill:url(#SVGID_330_);}
	.st249{clip-path:url(#SVGID_34_);fill:url(#SVGID_331_);}
	.st250{clip-path:url(#SVGID_34_);fill:url(#SVGID_332_);}
	.st251{clip-path:url(#SVGID_34_);fill:url(#SVGID_333_);}
	.st252{clip-path:url(#SVGID_34_);fill:url(#SVGID_334_);}
	.st253{clip-path:url(#SVGID_34_);fill:url(#SVGID_335_);}
	.st254{clip-path:url(#SVGID_34_);fill:url(#SVGID_336_);}
	.st255{clip-path:url(#SVGID_34_);fill:url(#SVGID_337_);}
	.st256{clip-path:url(#SVGID_34_);fill:url(#SVGID_338_);}
	.st257{clip-path:url(#SVGID_34_);fill:url(#SVGID_339_);}
	.st258{clip-path:url(#SVGID_34_);fill:url(#SVGID_340_);}
	.st259{clip-path:url(#SVGID_34_);fill:url(#SVGID_341_);}
	.st260{clip-path:url(#SVGID_34_);fill:url(#SVGID_342_);}
	.st261{clip-path:url(#SVGID_34_);fill:url(#SVGID_343_);}
	.st262{clip-path:url(#SVGID_34_);fill:url(#SVGID_344_);}
	.st263{clip-path:url(#SVGID_34_);fill:url(#SVGID_345_);}
	.st264{clip-path:url(#SVGID_34_);fill:url(#SVGID_346_);}
	.st265{clip-path:url(#SVGID_34_);fill:url(#SVGID_347_);}
	.st266{clip-path:url(#SVGID_34_);fill:url(#SVGID_348_);}
	.st267{clip-path:url(#SVGID_34_);fill:url(#SVGID_349_);}
	.st268{clip-path:url(#SVGID_34_);fill:url(#SVGID_350_);}
	.st269{clip-path:url(#SVGID_34_);fill:url(#SVGID_351_);}
	.st270{clip-path:url(#SVGID_34_);fill:url(#SVGID_352_);}
	.st271{clip-path:url(#SVGID_34_);fill:url(#SVGID_353_);}
	.st272{clip-path:url(#SVGID_34_);fill:url(#SVGID_354_);}
	.st273{clip-path:url(#SVGID_34_);fill:url(#SVGID_355_);}
	.st274{clip-path:url(#SVGID_34_);fill:url(#SVGID_356_);}
	.st275{clip-path:url(#SVGID_34_);fill:url(#SVGID_357_);}
	.st276{clip-path:url(#SVGID_34_);fill:url(#SVGID_358_);}
	.st277{clip-path:url(#SVGID_34_);fill:url(#SVGID_359_);}
	.st278{clip-path:url(#SVGID_34_);fill:url(#SVGID_360_);}
	.st279{clip-path:url(#SVGID_34_);fill:url(#SVGID_361_);}
	.st280{clip-path:url(#SVGID_34_);fill:url(#SVGID_362_);}
	.st281{clip-path:url(#SVGID_34_);fill:url(#SVGID_363_);}
	.st282{clip-path:url(#SVGID_34_);fill:url(#SVGID_364_);}
	.st283{clip-path:url(#SVGID_34_);fill:url(#SVGID_365_);}
	.st284{clip-path:url(#SVGID_34_);fill:url(#SVGID_366_);}
	.st285{clip-path:url(#SVGID_34_);fill:url(#SVGID_367_);}
	.st286{clip-path:url(#SVGID_34_);fill:url(#SVGID_368_);}
	.st287{fill-rule:evenodd;clip-rule:evenodd;fill:#EB008B;}
	.st288{fill:#F8AF00;}
	.st289{clip-path:url(#SVGID_2_);}
	.st290{clip-path:url(#SVGID_4_);}
	.st291{fill:none;stroke:#B3B3B3;stroke-width:3;stroke-miterlimit:10;}
	.st292{clip-path:url(#SVGID_30_);fill:#0069B3;}
	.st293{fill:#98252B;}
	.st294{fill:#999999;}
	.st295{fill:#FCC505;}
	.st296{fill-rule:evenodd;clip-rule:evenodd;}
	.st297{opacity:0.4;}
	.st298{opacity:0.5;}
	.st299{opacity:0.7;}
	.st300{opacity:0.8;}
	.st301{fill:#FF3366;}
	.st302{fill:none;stroke:#000000;stroke-miterlimit:10;}
	.st303{fill:#FF5000;}
	.st304{fill:#FF9E16;}
	.st305{fill:#FFFF00;}
	.st306{fill:#FFFFFF;}
	.st307{fill:#646464;}
	.st308{fill:#646569;}
	.st309{fill-rule:evenodd;clip-rule:evenodd;fill:#F3B531;}
	.st310{fill-rule:evenodd;clip-rule:evenodd;fill:#F3B632;}
	.st311{fill:none;stroke:#333333;stroke-width:0.4724;stroke-miterlimit:10;}
	.st312{fill:none;stroke:#5D5D5D;stroke-miterlimit:10;}
	.st313{opacity:0.7;fill:#646464;}
	.st314{clip-path:url(#SVGID_10_);fill:#D2D2D2;}
	.st315{clip-path:url(#SVGID_24_);fill:#FFFFFF;}
	.st316{fill:#382D71;}
	.st317{fill:#000100;}
	.st318{fill:#003361;}
	.st319{fill:#005DA9;}
	.st320{fill:#00A8E1;}
	.st321{fill:#00ADEE;}
	.st322{fill:#00C5F3;}
	.st323{fill:#00E4C2;}
	.st324{fill-rule:evenodd;clip-rule:evenodd;fill:#FFDD00;}
	.st325{fill-rule:evenodd;clip-rule:evenodd;fill:#FFFFFF;}
	.st326{fill:#D32527;}
	.st327{fill:#060E9F;}
	.st328{clip-path:url(#SVGID_34_);fill:url(#SVGID_35_);}
	.st329{clip-path:url(#SVGID_34_);fill:url(#SVGID_36_);}
	.st330{clip-path:url(#SVGID_34_);fill:url(#SVGID_37_);}
	.st331{clip-path:url(#SVGID_34_);fill:url(#SVGID_38_);}
	.st332{clip-path:url(#SVGID_34_);fill:url(#SVGID_39_);}
	.st333{clip-path:url(#SVGID_34_);fill:url(#SVGID_40_);}
	.st334{clip-path:url(#SVGID_34_);fill:url(#SVGID_41_);}
	.st335{clip-path:url(#SVGID_34_);fill:url(#SVGID_42_);}
	.st336{clip-path:url(#SVGID_34_);fill:url(#SVGID_43_);}
	.st337{clip-path:url(#SVGID_34_);fill:url(#SVGID_44_);}
	.st338{clip-path:url(#SVGID_34_);fill:url(#SVGID_45_);}
	.st339{clip-path:url(#SVGID_34_);fill:url(#SVGID_46_);}
	.st340{clip-path:url(#SVGID_34_);fill:url(#SVGID_47_);}
	.st341{clip-path:url(#SVGID_34_);fill:url(#SVGID_48_);}
	.st342{clip-path:url(#SVGID_34_);fill:url(#SVGID_49_);}
	.st343{clip-path:url(#SVGID_34_);fill:url(#SVGID_50_);}
	.st344{clip-path:url(#SVGID_34_);fill:url(#SVGID_51_);}
	.st345{clip-path:url(#SVGID_34_);fill:url(#SVGID_52_);}
	.st346{clip-path:url(#SVGID_34_);fill:url(#SVGID_53_);}
	.st347{clip-path:url(#SVGID_34_);fill:url(#SVGID_54_);}
	.st348{clip-path:url(#SVGID_34_);fill:url(#SVGID_55_);}
	.st349{clip-path:url(#SVGID_34_);fill:url(#SVGID_56_);}
	.st350{clip-path:url(#SVGID_34_);fill:url(#SVGID_57_);}
	.st351{clip-path:url(#SVGID_34_);fill:url(#SVGID_58_);}
	.st352{clip-path:url(#SVGID_34_);fill:url(#SVGID_59_);}
	.st353{clip-path:url(#SVGID_34_);fill:url(#SVGID_60_);}
	.st354{clip-path:url(#SVGID_34_);fill:url(#SVGID_61_);}
	.st355{clip-path:url(#SVGID_34_);fill:url(#SVGID_62_);}
	.st356{clip-path:url(#SVGID_34_);fill:url(#SVGID_63_);}
	.st357{clip-path:url(#SVGID_34_);fill:url(#SVGID_64_);}
	.st358{clip-path:url(#SVGID_34_);fill:url(#SVGID_65_);}
	.st359{clip-path:url(#SVGID_34_);fill:url(#SVGID_66_);}
	.st360{clip-path:url(#SVGID_34_);fill:url(#SVGID_67_);}
	.st361{clip-path:url(#SVGID_34_);fill:url(#SVGID_68_);}
	.st362{clip-path:url(#SVGID_34_);fill:url(#SVGID_69_);}
	.st363{clip-path:url(#SVGID_34_);fill:url(#SVGID_70_);}
	.st364{clip-path:url(#SVGID_34_);fill:url(#SVGID_71_);}
	.st365{clip-path:url(#SVGID_34_);fill:url(#SVGID_72_);}
	.st366{clip-path:url(#SVGID_34_);fill:url(#SVGID_73_);}
	.st367{clip-path:url(#SVGID_34_);fill:url(#SVGID_74_);}
	.st368{clip-path:url(#SVGID_34_);fill:url(#SVGID_75_);}
	.st369{clip-path:url(#SVGID_34_);fill:url(#SVGID_76_);}
	.st370{clip-path:url(#SVGID_34_);fill:url(#SVGID_77_);}
	.st371{clip-path:url(#SVGID_34_);fill:url(#SVGID_78_);}
	.st372{clip-path:url(#SVGID_34_);fill:url(#SVGID_79_);}
	.st373{clip-path:url(#SVGID_34_);fill:url(#SVGID_80_);}
	.st374{clip-path:url(#SVGID_34_);fill:url(#SVGID_81_);}
	.st375{clip-path:url(#SVGID_34_);fill:url(#SVGID_82_);}
	.st376{clip-path:url(#SVGID_34_);fill:url(#SVGID_83_);}
	.st377{clip-path:url(#SVGID_34_);fill:url(#SVGID_84_);}
	.st378{clip-path:url(#SVGID_34_);fill:url(#SVGID_85_);}
	.st379{clip-path:url(#SVGID_34_);fill:url(#SVGID_86_);}
	.st380{clip-path:url(#SVGID_34_);fill:url(#SVGID_87_);}
	.st381{clip-path:url(#SVGID_34_);fill:url(#SVGID_88_);}
	.st382{clip-path:url(#SVGID_34_);fill:url(#SVGID_89_);}
	.st383{clip-path:url(#SVGID_34_);fill:url(#SVGID_90_);}
	.st384{clip-path:url(#SVGID_34_);fill:url(#SVGID_91_);}
	.st385{clip-path:url(#SVGID_34_);fill:url(#SVGID_92_);}
	.st386{clip-path:url(#SVGID_34_);fill:url(#SVGID_93_);}
	.st387{clip-path:url(#SVGID_34_);fill:url(#SVGID_94_);}
	.st388{clip-path:url(#SVGID_34_);fill:url(#SVGID_95_);}
	.st389{clip-path:url(#SVGID_34_);fill:url(#SVGID_96_);}
	.st390{clip-path:url(#SVGID_34_);fill:url(#SVGID_97_);}
	.st391{clip-path:url(#SVGID_34_);fill:url(#SVGID_98_);}
	.st392{clip-path:url(#SVGID_34_);fill:url(#SVGID_99_);}
	.st393{fill:url(#SVGID_21_);}
	.st394{fill:url(#SVGID_22_);}
	.st395{clip-path:url(#SVGID_12_);fill:#D2D2D2;}
	.st396{display:none;}
	.st397{fill-rule:evenodd;clip-rule:evenodd;fill:#324274;}
	.st398{fill:#727272;}
	.st399{clip-path:url(#SVGID_18_);}
	.st400{clip-path:url(#SVGID_20_);}
	.st401{clip-path:url(#SVGID_26_);}
	.st402{clip-path:url(#SVGID_30_);}
	.st403{clip-path:url(#SVGID_32_);}
	.st404{clip-path:url(#SVGID_34_);}
	.st405{fill:none;stroke:#5D5D5D;stroke-width:2;stroke-miterlimit:10;}
	.st406{fill:#0B7250;}
	.st407{fill:#DE0A19;}
	.st408{fill:none;stroke:#333333;stroke-width:1.0135;stroke-miterlimit:10;}
	.st409{fill:none;stroke:#333333;stroke-width:0.9225;stroke-miterlimit:10;}
	.st410{clip-path:url(#SVGID_14_);fill:#D2D2D2;}
]]>
</style>
<g>
	<path class="st296" d="M9,17.5c-0.4,0-9,0-9,0l0,0l0,16.4h4.4v-3.6l0,0c0,0,4.1,0,4.6,0c0.9,0,1.8-0.7,1.8-1.8c0-0.4,0-2.8,0-4.7
		c0-0.1,0-0.3,0-0.4c0-1.6,0-3.7,0-4.2C10.8,18.2,10,17.5,9,17.5L9,17.5L9,17.5L9,17.5z M6,23.8c0,1.4,0,3.3,0,3.5
		C6,27.7,5.8,28,5.3,28c-0.3,0-0.9,0-0.9,0l0,0v-8.1l0.9,0l0,0c0,0,0.6,0,0.7,0.7l0,0l0,2.9l0,0C6,23.6,6,23.7,6,23.8L6,23.8L6,23.8
		z"/>
	<path class="st296" d="M18.3,30.8c0,0.6-0.3,0.9-0.8,0.9c-0.5,0-0.8-0.3-0.8-0.9c0-1,0-13.4,0-13.4l0,0h-4.7l0,0c0,0,0,14,0,14.7
		c0,1.1,0.9,1.8,1.8,1.8c0.5,0,6.8,0,7.2,0c0.8,0,1.8-0.7,1.8-1.8c0-1.3,0-14.7,0-14.7l0,0l-4.5,0l0,0
		C18.3,17.5,18.3,29.9,18.3,30.8L18.3,30.8L18.3,30.8z"/>
	<path class="st296" d="M39.3,17.5c-0.9,0-12.4,0-13.3,0c-1,0-1.8,0.8-1.8,1.8c0,0.9,0,14.7,0,14.7l0,0l4.5,0l0,0c0,0,0-11.9,0-12.8
		c0-0.6,0.3-0.9,0.8-0.9c0.4,0,0.8,0.3,0.8,0.9c0,0.7,0,12.8,0,12.8l0,0H35l0,0c0,0,0-12.1,0-12.8c0-0.6,0.3-1,0.8-1
		c0.5,0,0.8,0.3,0.8,1l0,0l0,12.8h4.5l0,0c0,0,0-13.6,0-14.6C41.1,18.3,40.2,17.5,39.3,17.5L39.3,17.5L39.3,17.5z"/>
	<path class="st296" d="M51.4,17.5c-0.8,0-6.3,0-7.1,0c-1,0-1.8,0.9-1.8,1.8c0,1,0,14.7,0,14.7l0,0H47v-3.6h0.5h0.5h0.6l0,3.6h4.7
		l0,0c0,0,0-13.7,0-14.7C53.2,18.3,52.4,17.5,51.4,17.5L51.4,17.5L51.4,17.5L51.4,17.5z M48.5,28h-0.6h-0.5H47l0,0c0,0,0-5.7,0-6.9
		c0-0.6,0.3-0.9,0.8-0.9c0.4,0,0.8,0.3,0.8,0.9C48.5,22.4,48.5,28,48.5,28L48.5,28L48.5,28z"/>
	<path class="st296" d="M68.5,0.7c-0.2-0.4-0.7-0.9-1.6-0.7c-5,1.4-4.4,7.5-8.3,10.2c-1.2,0.7-2.8,0.6-4,0.2C50.4,9,47.2,5,43.3,2.8
		c-1.5-1-3.3-1.3-3.3-1.3c-0.7-0.1-1.4-0.3-1.9-1.1c-0.2-0.5-0.4-0.1-0.4-0.1c-0.1,0.1-0.2,0.2-0.3,0.4c-0.4,0.2-0.6-0.4-1-0.3
		c-0.4,0.2-0.5,0.8-0.7,1.1c-1,0.3-0.9,1.4-1.8,1.9c-0.6,1.1,0.9,1.4,1.5,2.1c0.7,0.3,1.5-0.3,2.2,0.2c0,0,0.3,0.3,0.4,0.9
		c0,0.2-0.1,0.3-0.3,0.3c-1-0.2-2.1-0.3-3.1,0.1c-0.7,0.2-1.6,1-1.1,1.9c0.2,0.5,0.7,0.8,1.3,0.8c1,0,0.2-1,1-1
		c0.5,0.1,1,0.3,1.4,0.5c1.3,0.5,2.6,1.1,4.1,0.6c0,0,0.7-0.3,0.9-0.7c0,0,0.1-0.2,0.3,0c0,0,2,3.4,8.4,4c0,0,3.2,0.2,4.2,2.5
		c1.2,2.7,2.9,5.5,5.6,7.2c0.2,1.4-0.2,2.5,0.7,3.7c0.4,0.5,1,0.6,1.6,0.6c0,0,0.2,0,0.1-0.2c0-0.4-0.1-1.7,0.3-2
		c-0.6-0.7-0.6-1.9-0.8-2.9c0-0.3-0.3-0.3-0.3-0.3c-1.5-0.4-1.5-1.7-1.5-1.7c-0.2-2.7-0.3-5.5-1.7-7.7c2-1.1,2.9-3.3,3.6-5.2
		c0.9-2.2,3.2-3.3,5.1-4.3C68.4,2.4,68.7,1.4,68.5,0.7L68.5,0.7L68.5,0.7z"/>
	<path class="st296" d="M56.4,33.5c0,0,0-0.1,0-0.1l0,0v-0.1l0,0c0-0.1,0-0.2-0.1-0.2c0-0.1-0.1-0.1-0.3-0.1c0.1,0,0.2,0,0.2-0.1
		c0.1-0.1,0.2-0.1,0.1-0.3c0-0.2-0.1-0.3-0.2-0.4c-0.1,0-0.2,0-0.4,0l0,0h-0.5v1.5l0.3,0l0-0.6h0.2l0,0c0.1,0,0.2,0,0.3,0
		c0.1,0.1,0.1,0.2,0.2,0.3l0,0l0,0.1l0,0.1l0,0c0,0,0,0,0,0v0l0,0l0.2,0L56.4,33.5L56.4,33.5C56.4,33.5,56.4,33.5,56.4,33.5
		L56.4,33.5L56.4,33.5L56.4,33.5z M56,32.8c-0.1,0-0.1,0-0.2,0l0,0l-0.2,0v-0.5h0.2l0,0c0.1,0,0.3,0,0.3,0.1c0.1,0,0.1,0.1,0.1,0.2
		C56.1,32.7,56.1,32.7,56,32.8L56,32.8L56,32.8z"/>
	<path class="st296" d="M55.8,31.5c-0.4,0-0.7,0.1-0.9,0.4c-0.3,0.3-0.4,0.6-0.4,0.9c0,0.4,0.1,0.7,0.4,0.9c0.3,0.3,0.6,0.4,0.9,0.4
		c0.4,0,0.7-0.1,0.9-0.4c0.3-0.3,0.4-0.6,0.4-0.9c0-0.4-0.1-0.7-0.4-0.9C56.5,31.6,56.1,31.5,55.8,31.5L55.8,31.5L55.8,31.5
		L55.8,31.5z M56.6,33.6c-0.2,0.2-0.5,0.3-0.8,0.3c-0.3,0-0.6-0.1-0.8-0.3c-0.2-0.2-0.3-0.5-0.3-0.8c0-0.3,0.1-0.6,0.3-0.8
		c0.2-0.2,0.5-0.3,0.8-0.3c0.3,0,0.6,0.1,0.8,0.3c0.2,0.2,0.3,0.5,0.3,0.8C56.9,33.2,56.8,33.4,56.6,33.6L56.6,33.6L56.6,33.6z"/>
</g>
</svg>
