<svg xmlns="http://www.w3.org/2000/svg" width="83.8" height="16.089" viewBox="0 0 83.8 16.089"><g transform="translate(-6.9 -5.805)"><path d="M161.828,15.425V13.3H153v2.125h3.162v8.5h2.5v-8.5Zm2.782.152a4.017,4.017,0,0,1,3.718,4.275c0,2.378-1.594,4.275-3.718,4.275s-3.718-1.922-3.718-4.275a3.985,3.985,0,0,1,3.718-4.275Zm0,2c.86,0,1.568,1.012,1.568,2.276s-.683,2.276-1.568,2.276-1.568-1.012-1.568-2.276.683-2.276,1.568-2.276Zm8.524-2a4.017,4.017,0,0,1,3.718,4.275c0,2.378-1.341,4.275-3.491,4.3a2.744,2.744,0,0,1-1.72-.86v3.389h-2.125V16.866h0a5.189,5.189,0,0,1,3.617-1.29Zm-1.467,2.529a1.685,1.685,0,0,1,1.442-.481c.936.2,1.366,1.088,1.391,2.276s-.329,1.973-1.164,2.175a2.3,2.3,0,0,1-1.669-.481V18.106Zm9.865-2.529a4.017,4.017,0,0,1,3.718,4.275c0,2.378-1.341,4.275-3.491,4.3a2.744,2.744,0,0,1-1.72-.86v3.389h-2.125V16.866h0a5.189,5.189,0,0,1,3.617-1.29Zm-1.467,2.529a1.685,1.685,0,0,1,1.442-.481c.936.2,1.366,1.088,1.391,2.276s-.329,1.973-1.164,2.175a2.3,2.3,0,0,1-1.669-.481V18.106Zm9.915-.531c.658,0,1.214.582,1.442,1.416h-2.909c.253-.835.809-1.416,1.467-1.416Zm0-2c2.631,0,3.668,2.681,3.668,5.059h-5.135a1.709,1.709,0,0,0,1.467,1.492,2.238,2.238,0,0,0,1.619-.734h.025l1.594,1.239a3.66,3.66,0,0,1-3.212,1.492c-2.125,0-3.718-1.922-3.718-4.275a3.966,3.966,0,0,1,3.693-4.275Zm4.781,8.347h2.125V17.954a5.285,5.285,0,0,1,2.327-.354c.2-.607.43-1.214.632-1.846a7.416,7.416,0,0,0-5.084.911h0v7.259Z" transform="translate(-109.145 -5.599)" fill-rule="evenodd"/><path d="M6.9,13.67c0,.126.4.126.607.152a97.413,97.413,0,0,1,10.725,1.8c2.605.607,5.818,1.416,6.829,2.378a2.028,2.028,0,0,1,.379,2.327c-.278.582-.961,1.265-.759,1.543.152.2,1.391-.734,2.1-1.088,2.327-1.113,4.477-2.327,6.905-3.364,2.454-1.037,6.855-2.125,6.829-4.857-.025-2.074-2.5-3.086-5.615-4.047A39.5,39.5,0,0,1,30.12,6.386c-.759-.379-.911-.708-1.138-.531-.076.051.1,1.265-.253,1.72-.632.835-1.973,1.341-3.946,1.8a86.858,86.858,0,0,1-10.548,1.644c-.2.025-.607.076-.582.152.025.152.354.076.531.076,5.565-.076,11.129-.354,16.72-.4,3.389-.051,8.448.936,8.423,1.594-.025.734-5.109,1.922-8.929,1.973-7.437.076-15.1-.506-22.664-.809-.278.025-.835-.076-.835.076Z" transform="translate(0 0)" fill-rule="evenodd"/></g></svg>