<svg xmlns="http://www.w3.org/2000/svg" width="53.8" height="31.404" viewBox="0 0 53.8 31.404"><g transform="translate(-1 -1)"><g transform="translate(7.991 1)"><path d="M-148.679-53.737c4.367-1.921,7.218-4.806,7.374-8.007A20.929,20.929,0,0,0-146.18-64a27.144,27.144,0,0,0-5.762-1.478l.012,7.131a4.889,4.889,0,0,1-1.235,3.116,34.592,34.592,0,0,0-8.065-.932h0a34.611,34.611,0,0,0-8.073.934,4.893,4.893,0,0,1-1.236-3.118l.011-7.131A27.174,27.174,0,0,0-176.295-64a20.872,20.872,0,0,0-4.873,2.258c.154,3.2,3.007,6.088,7.379,8.009-4.368,1.921-7.219,4.806-7.374,8.006a20.847,20.847,0,0,0,4.874,2.258,27.158,27.158,0,0,0,5.762,1.478l-.012-7.131A4.883,4.883,0,0,1-169.3-52.24a34.483,34.483,0,0,0,8.064.931h0a34.455,34.455,0,0,0,8.074-.934,4.9,4.9,0,0,1,1.235,3.119l-.01,7.131a27.159,27.159,0,0,0,5.762-1.478,20.847,20.847,0,0,0,4.874-2.258c-.155-3.2-3.008-6.088-7.379-8.008m-12.557,1.6h0l-.082,0a11.7,11.7,0,0,1-6.24-1.6,11.7,11.7,0,0,1,6.246-1.6h.165a11.7,11.7,0,0,1,6.24,1.6,11.7,11.7,0,0,1-6.245,1.6" transform="translate(181.168 65.479)"/></g><g transform="translate(1 29.08)"><path d="M-5.833-15.134a1.153,1.153,0,0,1-1.275-1.324V-18.2c0-.106-.009-.246.215-.246h.647c.21,0,.2.15.2.246v1.738A.419.419,0,0,0-5.571-16h1.086a.418.418,0,0,0,.473-.456V-18.2c0-.1-.012-.246.2-.246h.652c.237,0,.216.15.216.246v1.738a1.154,1.154,0,0,1-1.279,1.324" transform="translate(7.108 18.441)"/></g><g transform="translate(5.562 29.08)"><path d="M-12.408-14.173c-.442-.6-1.073-1.346-1.717-2.138v2.116c0,.092.023.232-.2.232h-.6c-.219,0-.193-.14-.193-.232v-2.829c0-.1-.01-.246.193-.246h1.178c.333,0,.807.67,1.117,1.113.24.338.683.845.98,1.226v-2.093c0-.1-.013-.246.206-.246h.656c.211,0,.2.15.2.246v3.062H-11.8a.662.662,0,0,1-.609-.21" transform="translate(15.12 17.27)"/></g><g transform="translate(10.489 29.086)"><path d="M-12.65-11.127c.529,0,.491-.508.491-.74,0-.78-.22-.81-.57-.81h-1.664v1.551Zm-2.764.871v-3.3H-12.5a1.217,1.217,0,0,1,1.373,1.234c0,1.284.14,2.068-1.348,2.068h-1.573l-.341-.692v.692" transform="translate(15.414 13.558)"/></g><g transform="translate(15.18 29.107)"><path d="M-3.406,0H-.718c.228,0,.2.149.2.425,0,.257.035.4-.2.4H-2.842C-2.9.827-3.09.8-3.09,1s-.039.281.175.281h1.879s.271.517.3.6.039.153-.127.153H-2.807l-.3-.587v.867c0,.2.18.162.232.162H-.67c.22,0,.2.153.2.4,0,.269.018.416-.2.416H-3.464c-.232,0-.687-.07-.687-.8V.678A.671.671,0,0,1-3.406,0" transform="translate(4.15 0)"/></g><g transform="translate(19.263 29.085)"><path d="M-11.965-3.99h-1.309c-.218,0-.21.075-.21.141v.591h1.349c.653,0,.653-.163.653-.334,0-.341-.026-.4-.482-.4m-2.342-.872h2.943c.394,0,.967,0,.967,1.06,0,.7-.148.731-.463.946.53.092.46.77.46,1.121,0,.179-.065.176-.119.176h-.862c-.18,0-.136-.285-.136-.434,0-.408-.227-.389-.316-.389H-13.1c-.122-.211-.359-.684-.359-.684V-1.7c0,.119-.119.136-.162.136h-.866c.047,0-.089.009-.089-.11V-4.577a.263.263,0,0,1,.272-.285" transform="translate(14.579 4.862)"/></g><g transform="translate(25.731 29.107)"><path d="M-11.122-4.183l-.543.99.048.048h1.012l.053-.048c-.035-.075-.473-.906-.517-.995l-.053,0m.35-.914c.215,0,.424.1.652.538.154.315,1.223,2.245,1.445,2.649V-1.8H-9.787l-.32-.578H-11.46s-.227-.521-.293-.665c-.083.135-.53.985-.685,1.243h-1.115v-.07C-13.325-2.3-11.771-5.1-11.771-5.1" transform="translate(13.553 5.097)"/></g><g transform="translate(30.914 29.085)"><path d="M-11.96-3.99H-13.27c-.219,0-.21.075-.21.141v.591h1.349c.653,0,.653-.163.653-.334,0-.341-.026-.4-.482-.4M-14.3-4.862h2.943c.394,0,.968,0,.968,1.06,0,.7-.148.731-.464.946.529.092.459.77.459,1.121,0,.179-.065.176-.118.176h-.862c-.18,0-.136-.285-.136-.434,0-.408-.227-.389-.316-.389H-13.1c-.123-.211-.36-.684-.36-.684V-1.7c0,.119-.117.136-.161.136h-.867c.048,0-.087.009-.087-.11V-4.577a.262.262,0,0,1,.271-.285" transform="translate(14.574 4.862)"/></g><g transform="translate(35.428 29.084)"><path d="M-10.246-15.115c-.22-.411-.829-1.546-1.24-2.289v2.057c0,.092.012.232-.2.232h-.6c-.223,0-.206-.14-.206-.232v-2.829c0-.1-.012-.241.206-.241h1.029c.153,0,.371-.035.618.456.184.393.575,1.209.841,1.642a18.3,18.3,0,0,0,.858-1.642c.241-.491.455-.456.625-.456h1.024c.211,0,.189.145.189.241v2.829c0,.092.03.232-.189.232h-.6c-.219,0-.2-.14-.2-.232V-17.4c-.415.743-1.021,1.878-1.249,2.289" transform="translate(12.485 18.417)"/></g><g transform="translate(41.207 29.067)"><path d="M-13.25-11.342c.5,0,.478-.511.478-.854,0-.307.07-.788-.574-.788h-1.091c-.639,0-.564.481-.564.788,0,.342-.031.854.464.854Zm-1.961.85c-.976,0-.933-1.047-.933-1.725,0-.622-.07-1.594,1.152-1.6h2.169c1.226,0,1.146.985,1.146,1.6,0,.677.049,1.725-.942,1.725" transform="translate(16.145 13.82)"/></g><g transform="translate(46.033 29.08)"><path d="M-5.833-15.134a1.152,1.152,0,0,1-1.275-1.324V-18.2c0-.106-.009-.246.215-.246h.648c.209,0,.2.15.2.246v1.738A.418.418,0,0,0-5.571-16h1.086a.418.418,0,0,0,.473-.456V-18.2c0-.1-.013-.246.2-.246h.652c.237,0,.216.15.216.246v1.738a1.154,1.154,0,0,1-1.279,1.324" transform="translate(7.108 18.441)"/></g><g transform="translate(50.617 29.085)"><path d="M-11.96-3.99H-13.27c-.219,0-.21.075-.21.141v.591h1.349c.653,0,.653-.163.653-.334,0-.341-.026-.4-.482-.4M-14.3-4.862h2.944c.394,0,.969,0,.969,1.06,0,.7-.15.731-.465.946.53.092.46.77.46,1.121,0,.179-.065.176-.119.176h-.862c-.179,0-.136-.285-.136-.434,0-.408-.227-.389-.315-.389H-13.1c-.122-.211-.359-.684-.359-.684V-1.7c0,.119-.119.136-.162.136h-.866c.047,0-.088.009-.088-.11V-4.577a.262.262,0,0,1,.27-.285" transform="translate(14.574 4.862)"/></g></g></svg>