<svg xmlns="http://www.w3.org/2000/svg" width="33.608" height="33.604" viewBox="0 0 33.608 33.604"><g transform="translate(-695.7 -4851.716)"><path d="M712.471,4851.716a16.8,16.8,0,1,1-16.769,16.537A16.789,16.789,0,0,1,712.471,4851.716Zm-11.421,16.7a22.586,22.586,0,0,0,.767,3.81,37.332,37.332,0,0,0,3.238,7.5.656.656,0,0,0,.588.369,1.685,1.685,0,0,0,1.1-.307.62.62,0,0,0,.192-.868c-.419-.8-.849-1.6-1.241-2.414a28.651,28.651,0,0,1-2.356-6.833c-.106-.537-.174-1.082-.25-1.625-.012-.087-.071-.2.094-.255.969-.3,1.938-.608,2.9-.931a1.792,1.792,0,0,0,.611-.342.322.322,0,0,0-.162-.575.979.979,0,0,0-.468-.021c-.657.17-1.31.358-1.96.554-.365.11-.72.248-1.084.375a19.447,19.447,0,0,1,.934-6.07,3.416,3.416,0,0,1,.161.322c.26.684.519,1.369.769,2.057a.6.6,0,0,0,.406.425,1.5,1.5,0,0,0,1.484-.376.51.51,0,0,0,.138-.562c-.049-.151-.094-.3-.146-.453a11.293,11.293,0,0,0-1.132-2.546,1.837,1.837,0,0,0-2.721-.437,2.875,2.875,0,0,0-.982,1.521,17.836,17.836,0,0,0-.663,2.789,18.673,18.673,0,0,0-.325,3.309c0,.209,0,.419,0,.615-.626.2-1.258.383-1.882.595a3.307,3.307,0,0,0-.69.338.243.243,0,0,0,.037.453,1.179,1.179,0,0,0,.555.083,9.308,9.308,0,0,0,1.006-.217C700.326,4868.606,700.675,4868.51,701.049,4868.413Zm21.644,1.714a1.178,1.178,0,0,1,0,.172c-.105.718-.175,1.443-.329,2.15a4.156,4.156,0,0,1-1.243,2.277c-.151.137-.328.247-.477.385a.217.217,0,0,0,.083.4.98.98,0,0,0,.351.031,2.274,2.274,0,0,0,1.377-.679,5.4,5.4,0,0,0,1.628-3.123,18.86,18.86,0,0,0,.282-3.353,15.985,15.985,0,0,1,.28-3.883c.04-.145-.033-.222-.176-.251a1.819,1.819,0,0,0-1.115.174.521.521,0,0,0-.335.389,10.821,10.821,0,0,0-.2,1.229c-.049.778-.053,1.559-.079,2.338a.474.474,0,0,1-.044.228c-.2.312-.394.627-.619.921-.263.344-.426.306-.576-.1-.016-.043-.028-.088-.043-.132a12.632,12.632,0,0,1-.514-3.2c-.028-.462-.054-.924-.087-1.385-.021-.282-.083-.359-.35-.315a9.42,9.42,0,0,0-1.067.267.294.294,0,0,0-.209.354c.089,1.02.152,2.043.256,3.062a5.686,5.686,0,0,0,.417,1.746,1.1,1.1,0,0,0,1.239.772,3.569,3.569,0,0,0,.716-.145C722.143,4870.371,722.411,4870.242,722.694,4870.127Zm-11.834.861a7.812,7.812,0,0,0-.7-3.311,1.861,1.861,0,0,0-.949-.992,2.353,2.353,0,0,0-2.908.934.47.47,0,0,0-.038.505.282.282,0,0,1,.01.166c-.055.345-.131.688-.168,1.034a10.615,10.615,0,0,0,.045,2.511,5.109,5.109,0,0,0,.468,1.691,1.6,1.6,0,0,0,1.72,1,2.843,2.843,0,0,0,2.167-1.671A4.489,4.489,0,0,0,710.86,4870.988Zm.313-1.429c.018.35.025.7.055,1.048a6.021,6.021,0,0,0,.47,2.033,1.59,1.59,0,0,0,1.858,1.031,2.805,2.805,0,0,0,2.186-1.967,5.491,5.491,0,0,0,.208-2.311,7.124,7.124,0,0,0-.677-2.588,1.821,1.821,0,0,0-.637-.792,2.314,2.314,0,0,0-3.217.821.43.43,0,0,0-.033.414.433.433,0,0,1,.019.246A9.3,9.3,0,0,0,711.173,4869.56Zm5.124-4.915c.015.166.031.323.045.48.108,1.278.188,2.558.333,3.832a19.412,19.412,0,0,0,.428,2.232,1.851,1.851,0,0,0,1.288,1.389,1.244,1.244,0,0,0,1.121-.122.625.625,0,0,0,.309-.692c-.082-.278-.323-.308-.561-.359a.682.682,0,0,1-.327-.185.73.73,0,0,1-.172-.329c-.152-.654-.335-1.306-.423-1.97-.152-1.146-.246-2.3-.353-3.451-.038-.405-.042-.813-.061-1.228l.331-.061a1.476,1.476,0,0,0,.783-.3.406.406,0,0,0,.143-.479c-.045-.091-.225-.118-.348-.163a.387.387,0,0,0-.158,0l-.793.062c-.012-.272-.01-.542-.037-.809a6.608,6.608,0,0,0-.178-1.768.577.577,0,0,0-.479-.414,1.191,1.191,0,0,0-.95.249.526.526,0,0,0-.189.6,1.823,1.823,0,0,1,.092.343c.048.659.085,1.319.129,1.978.007.109-.036.149-.143.164a5.145,5.145,0,0,0-.622.116,6.242,6.242,0,0,0-.994.31c-.332.153-.333.464-.045.7a.91.91,0,0,0,.81.15C715.616,4864.837,715.951,4864.736,716.3,4864.645Zm-5.122,13.413a6.157,6.157,0,0,0,3.683-.932,9.453,9.453,0,0,0,1.95-1.82,1.615,1.615,0,0,0,.473-.956,1.111,1.111,0,0,0-.3-.871.548.548,0,0,0-.854.006c-.4.431-.78.881-1.182,1.31a5.5,5.5,0,0,1-1.985,1.417,6.6,6.6,0,0,1-3.315.346,3.758,3.758,0,0,1-2.05-.867.988.988,0,0,0-.312-.166.481.481,0,0,0-.549.158c-.1.154-.06.277.141.48A6.194,6.194,0,0,0,711.174,4878.058Z" transform="translate(0 0)"/><path d="M997.958,5254.765a.884.884,0,0,1,.538.575,6.886,6.886,0,0,1,.545,3.348,4.221,4.221,0,0,1-.177.908,1.454,1.454,0,0,1-.628.761,5.659,5.659,0,0,1-.306-.618,7.37,7.37,0,0,1-.348-3.068,6.663,6.663,0,0,1,.33-1.806C997.923,5254.836,997.938,5254.809,997.958,5254.765Z" transform="translate(-289.87 -387.049)"/><path d="M1127.253,5240.353a4.516,4.516,0,0,1-.267-.505,6.831,6.831,0,0,1-.372-3.1c.059-.588.188-1.17.293-1.752.014-.076.087-.209.113-.2a.479.479,0,0,1,.251.13,2.464,2.464,0,0,1,.49,1.006,7.2,7.2,0,0,1,.25,3.23A1.73,1.73,0,0,1,1127.253,5240.353Z" transform="translate(-413.772 -367.869)"/></g></svg>